<?xml version="1.0" standalone="no"?>
<!DOCTYPE svg PUBLIC "-//W3C//DTD SVG 20010904//EN"
 "http://www.w3.org/TR/2001/REC-SVG-20010904/DTD/svg10.dtd">
<svg version="1.0" xmlns="http://www.w3.org/2000/svg"
 width="700.000000pt" height="700.000000pt" viewBox="0 0 700.000000 700.000000"
 preserveAspectRatio="xMidYMid meet">
<metadata>
Created by potrace 1.14, written by Peter Selinger 2001-2017
</metadata>
<g transform="translate(0.000000,700.000000) scale(0.100000,-0.100000)"
fill="#000000" stroke="none">
<path d="M3135 6324 c-135 -24 -249 -82 -347 -178 -103 -99 -118 -130 -279
-551 -50 -132 -101 -267 -114 -300 -13 -33 -128 -332 -255 -665 -127 -333
-235 -616 -241 -629 -12 -29 -211 -546 -244 -636 -12 -33 -86 -224 -163 -425
-77 -201 -165 -432 -197 -515 -31 -82 -65 -169 -75 -192 -11 -24 -20 -46 -20
-50 0 -5 -13 -42 -29 -83 -16 -41 -41 -104 -54 -140 -14 -36 -41 -105 -60
-155 -125 -325 -151 -396 -164 -444 -75 -283 96 -581 384 -671 84 -26 267 -33
363 -14 214 44 375 194 445 414 10 30 20 60 24 65 3 6 6 12 6 15 0 3 18 52 39
110 155 424 160 435 233 519 80 91 179 153 301 188 48 13 126 16 475 18 229 1
419 4 420 6 3 4 30 75 179 469 22 58 44 114 49 125 5 11 24 61 43 112 19 51
46 120 60 155 13 35 65 171 116 303 50 132 95 249 100 260 5 11 59 153 120
315 62 162 118 309 125 325 7 17 31 80 55 142 l42 111 -103 269 c-56 147 -117
306 -134 353 -62 164 -186 485 -200 517 -8 17 -15 34 -15 37 0 5 -115 311
-139 371 -67 165 -142 264 -257 343 -145 98 -318 136 -489 106z"/>
<path d="M5497 4864 c-1 -1 -22 -5 -47 -9 -129 -19 -267 -96 -351 -197 -59
-71 -81 -113 -144 -278 -26 -69 -65 -170 -86 -225 -21 -55 -58 -152 -82 -215
-24 -63 -48 -124 -52 -135 -4 -11 -9 -24 -10 -30 -3 -12 -62 -162 -75 -190 -5
-11 -41 -105 -81 -210 -102 -270 -367 -963 -384 -1005 -67 -163 -374 -984
-380 -1015 -34 -182 19 -368 143 -501 114 -123 253 -184 426 -188 135 -3 223
15 321 64 113 57 201 144 255 249 12 24 109 285 216 580 107 295 199 545 204
556 4 11 29 79 55 150 26 72 62 171 80 220 18 50 56 155 85 235 28 80 64 179
80 220 16 41 65 176 110 300 131 361 161 443 175 480 7 19 25 69 40 110 15 41
31 84 35 95 5 11 25 66 44 123 50 145 61 235 41 340 -46 242 -238 429 -481
468 -42 7 -132 12 -137 8z"/>
</g>
</svg>
