<?xml version="1.0" encoding="UTF-8"?><svg id="Layer_1" xmlns="http://www.w3.org/2000/svg" width="600" height="129.63" viewBox="0 0 600 129.63"><path d="M134.486,86.648c0-9.787,7.49-15.879,18.477-15.879h8.49c2.497,0,3.795-1.6,3.795-3.697,0-4.195-3.295-6.99-8.99-6.99-6.092,0-9.187,3.695-9.387,7.89h-12.384c.598-10.09,8.69-18.177,22.572-18.177,12.684,0,21.974,7.39,21.974,18.774v32.364h-13.784v-6.992c-1.797,4.695-7.29,7.79-14.182,7.79-9.79,0-16.579-6.492-16.579-15.082ZM154.56,91.643c6.792,0,10.687-4.995,10.687-11.387v-.6h-10.187c-4.195,0-7.192,2.497-7.192,6.395,0,3.395,2.797,5.592,6.692,5.592Z" fill="#f3f1ff" stroke-width="0"/><path d="M185.931,75.763c0-15.682,8.987-25.969,23.572-25.969,6.292,0,11.185,2.395,13.982,6.092v-27.169h13.882v72.214h-13.882v-5.495c-2.797,3.895-7.99,6.292-13.784,6.292-14.782,0-23.769-10.287-23.769-25.966ZM211.997,89.743c7.392,0,12.287-5.59,12.287-13.98,0-8.492-4.895-14.084-12.287-14.084s-12.285,5.592-12.285,14.084c0,8.39,4.895,13.98,12.285,13.98Z" fill="#f3f1ff" stroke-width="0"/><path d="M242.944,50.592h14.184l10.587,32.561,10.487-32.561h14.282l-18.377,50.34h-12.784l-18.379-50.34Z" fill="#f3f1ff" stroke-width="0"/><path d="M294.036,86.648c0-9.787,7.49-15.879,18.477-15.879h8.49c2.497,0,3.795-1.6,3.795-3.697,0-4.195-3.295-6.99-8.99-6.99-6.092,0-9.187,3.695-9.387,7.89h-12.384c.598-10.09,8.69-18.177,22.572-18.177,12.684,0,21.974,7.39,21.974,18.774v32.364h-13.784v-6.992c-1.797,4.695-7.29,7.79-14.182,7.79-9.79,0-16.579-6.492-16.579-15.082ZM314.11,91.643c6.792,0,10.687-4.995,10.687-11.387v-.6h-10.187c-4.195,0-7.192,2.497-7.192,6.395,0,3.395,2.797,5.592,6.692,5.592Z" fill="#f3f1ff" stroke-width="0"/><path d="M345.481,50.592h13.984v6.992c2.795-4.895,8.39-7.79,15.282-7.79,11.385,0,18.777,8.19,18.777,19.774v31.364h-13.984v-28.266c0-6.092-3.895-10.487-9.687-10.487-6.092,0-10.387,4.692-10.387,11.185v27.569h-13.984v-50.34Z" fill="#f3f1ff" stroke-width="0"/><path d="M421.995,35.71v14.882h13.484v11.587h-13.484v19.877c0,4.892,2.597,7.19,7.092,7.19h6.392v11.687h-8.29c-11.587,0-19.077-6.595-19.077-18.279v-20.474h-9.69v-11.587h9.69v-14.882h13.882Z" fill="#f3f1ff" stroke-width="0"/><path d="M440.38,86.648c0-9.787,7.492-15.879,18.477-15.879h8.49c2.497,0,3.797-1.6,3.797-3.697,0-4.195-3.297-6.99-8.99-6.99-6.092,0-9.19,3.695-9.39,7.89h-12.384c.6-10.09,8.69-18.177,22.574-18.177,12.684,0,21.972,7.39,21.972,18.774v32.364h-13.782v-6.992c-1.797,4.695-7.292,7.79-14.184,7.79-9.787,0-16.579-6.492-16.579-15.082ZM460.456,91.643c6.792,0,10.687-4.995,10.687-11.387v-.6h-10.19c-4.195,0-7.19,2.497-7.19,6.395,0,3.395,2.797,5.592,6.692,5.592Z" fill="#f3f1ff" stroke-width="0"/><path d="M498.914,110.419h23.172c4.197,0,7.292-3.395,7.292-7.99v-6.592c-2.597,3.695-7.89,5.892-13.782,5.892-14.882,0-23.772-10.287-23.772-25.966s8.89-25.969,23.572-25.969c6.092,0,11.085,2.297,13.882,5.792v-4.995h13.984v53.335c0,10.387-7.592,17.379-18.979,17.379h-25.369v-10.887ZM517.794,89.743c7.49,0,12.384-5.492,12.384-13.98s-4.895-14.084-12.384-14.084c-7.392,0-12.287,5.592-12.287,14.084s4.895,13.98,12.287,13.98Z" fill="#f3f1ff" stroke-width="0"/><path d="M550.162,75.661c0-12.784,7.79-25.866,24.869-25.866,17.779,0,24.869,13.082,24.869,24.569,0,1.897-.1,3.395-.2,4.495h-36.156c1,7.09,5.495,11.485,12.484,11.485,5.595,0,9.29-2.195,10.39-6.492h13.582c-1.997,10.887-11.585,17.879-23.971,17.879-17.079,0-25.866-13.382-25.866-26.069ZM587.518,70.068c-.4-5.592-4.295-10.09-10.987-10.09-6.292,0-10.087,3.097-11.287,10.09h22.274Z" fill="#f3f1ff" stroke-width="0"/><path d="M93.467,42.146l-26.449,69.603c-3.281,8.634,3.096,17.88,12.332,17.88h1.292c5.558,0,10.52-3.482,12.409-8.709l25.158-69.604c3.13-8.659-3.347-17.779-12.554-17.678h0c-5.425.06-10.261,3.435-12.188,8.506Z" fill="#f3f1ff" stroke-width="0"/><path d="M53.832,0c-6.486,0-12.023,4.129-14.108,9.895L.851,112.193c-3.2,8.42,3.02,17.438,12.028,17.438h1.994c5.42,0,10.259-3.396,12.101-8.493l4.715-13.046c2.11-5.837,7.147-8.863,12.319-9.132l17.345-.012,20.187-53.092-13.666-35.964c-2.086-5.765-7.558-9.892-14.043-9.892Z" fill="#f3f1ff" stroke-width="0"/></svg>