<?xml version="1.0" encoding="UTF-8"?><svg id="Layer_1" xmlns="http://www.w3.org/2000/svg" width="119.006" height="129.63" viewBox="0 0 119.006 129.63"><path d="M93.467,42.146l-26.449,69.603c-3.281,8.634,3.096,17.88,12.332,17.88h1.292c5.558,0,10.52-3.482,12.409-8.709l25.158-69.604c3.13-8.659-3.347-17.779-12.554-17.678h0c-5.425.06-10.261,3.435-12.188,8.506Z" fill="#6b04fd" stroke-width="0"/><path d="M53.832,0c-6.486,0-12.023,4.129-14.108,9.895L.851,112.193c-3.2,8.42,3.02,17.438,12.028,17.438h1.994c5.42,0,10.259-3.396,12.101-8.493l4.715-13.046c2.11-5.837,7.147-8.863,12.319-9.132l17.345-.012,20.187-53.092-13.666-35.964c-2.086-5.765-7.558-9.892-14.043-9.892Z" fill="#6b04fd" stroke-width="0"/></svg>