<?xml version="1.0" encoding="UTF-8"?><svg id="Layer_1" xmlns="http://www.w3.org/2000/svg" width="673.384" height="129.839" viewBox="0 0 673.384 129.839"><path d="M93.467,42.146l-26.449,69.603c-3.281,8.634,3.096,17.88,12.332,17.88h1.292c5.558,0,10.52-3.482,12.409-8.709l25.158-69.604c3.13-8.659-3.347-17.779-12.554-17.678h0c-5.425.06-10.261,3.435-12.188,8.506v.002Z" fill="#fff"/><path d="M69.241,79.296l-7.736-12.253c-7.733-12.251-2.517-31.917-2.515-31.923,1.401-4.439,6.522-17.441,6.522-17.441C68.642,9.02,62.165-.1,52.958,0c-5.425.06-10.261,3.435-12.188,8.506v.002L.873,111.749c-3.281,8.634,3.096,17.88,12.332,17.88h1.292c5.558,0,10.52-3.482,12.409-8.709l6.709-17.94c2.517-5.539,6.601-5.65,9.113-5.069l17.087,6.176,9.426-24.791Z" fill="#fff"/><path d="M215.727,37.133h14.801v14.701h-14.801v-14.701ZM216.127,59.035h14.001v50.403h-14.001v-50.403Z" fill="#fff"/><path d="M243.68,118.938h23.201c4.2,0,7.3-3.399,7.3-8v-6.601c-2.6,3.7-7.9,5.9-13.801,5.9-14.901,0-23.801-10.301-23.801-26.002s8.9-26.001,23.602-26.001c6.1,0,11.101,2.3,13.9,5.8v-5h14.001v53.403c0,10.4-7.601,17.401-19.001,17.401h-25.401v-10.901ZM262.581,98.237c7.5,0,12.401-5.5,12.401-14.001s-4.9-14.101-12.401-14.101c-7.4,0-12.301,5.601-12.301,14.101s4.9,14.001,12.301,14.001Z" fill="#fff"/><path d="M294.98,37.133h13.901v28.901c2.9-4.899,8.4-7.8,15.401-7.8,11.301,0,18.701,8.2,18.701,19.801v31.402h-13.901v-28.302c0-6.101-4-10.501-9.801-10.501-6.1,0-10.4,4.7-10.4,11.201v27.602h-13.901V37.133Z" fill="#fff"/><path d="M390.178,59.035h14.001v7.101c2.7-4.601,7.5-7.9,14.301-7.9,7.901,0,13.001,3.2,15.401,9.2,2.4-4.9,8.701-9.2,16.801-9.2,11,0,18.101,8.101,18.101,18.201v33.002h-13.901v-28.602c0-6.501-3.5-10.801-8.9-10.801-5.8,0-9.5,4.3-9.5,10.801v28.602h-14.001v-28.602c0-6.501-3.4-10.801-8.801-10.801-5.8,0-9.5,4.3-9.5,10.801v28.602h-14.001v-50.403Z" fill="#fff"/><path d="M475.681,59.035h13.901v5.5c3-3.899,8-6.3,14.501-6.3,14.101,0,23.101,10.301,23.101,26.001s-9.801,26.002-24.301,26.002c-5.7,0-10.601-1.9-13.301-5.301v24.902h-13.901V59.035ZM501.183,98.237c7.3,0,12.301-5.6,12.301-14.001,0-8.5-5-14.101-12.301-14.101-7.5,0-12.401,5.601-12.401,14.101,0,8.401,4.9,14.001,12.401,14.001Z" fill="#fff"/><path d="M532.882,95.137c0-9.801,7.5-15.901,18.501-15.901h8.501c2.5,0,3.8-1.6,3.8-3.7,0-4.2-3.3-7-9.001-7-6.1,0-9.2,3.7-9.4,7.9h-12.4c.6-10.101,8.7-18.201,22.602-18.201,12.7,0,22.001,7.4,22.001,18.801v32.402h-13.801v-7.001c-1.8,4.7-7.301,7.801-14.201,7.801-9.801,0-16.601-6.5-16.601-15.101ZM552.982,100.137c6.801,0,10.701-5,10.701-11.4v-.601h-10.2c-4.201,0-7.201,2.5-7.201,6.4,0,3.4,2.801,5.601,6.7,5.601Z" fill="#fff"/><path d="M583.382,84.236c0-14.7,10.4-26.001,26.002-26.001,13.2,0,23.701,8,24.602,19.701h-14.001c-.8-4.5-5.101-7.801-10.201-7.801-7.5,0-11.9,5.9-11.9,14.101s4.5,14.001,12.101,14.001c5.101,0,9.201-3.1,10.201-7.601h14.2c-1.5,11.201-11.9,19.602-25.001,19.602-15.602,0-26.002-11.301-26.002-26.002Z" fill="#fff"/><path d="M659.884,44.133v14.901h13.5v11.601h-13.5v19.901c0,4.9,2.6,7.2,7.1,7.2h6.4v11.701h-8.3c-11.601,0-19.102-6.601-19.102-18.302v-20.501h-9.7v-11.601h9.7v-14.901h13.901Z" fill="#fff"/><path d="M208.721,39.433v70.005h-15.001v-29.302h-28.902v29.302h-15.001V39.433h15.001v27.802h28.902v-27.802h15.001Z" fill="#fff"/><path d="M368.18,39.433h15.101v70.005h-15.101V39.433Z" fill="#fff"/></svg>