<?xml version="1.0" encoding="UTF-8"?><svg id="Layer_1" xmlns="http://www.w3.org/2000/svg" width="119.007" height="129.629" viewBox="0 0 119.007 129.629"><path d="M93.467,42.146l-26.449,69.603c-3.281,8.634,3.096,17.88,12.332,17.88h1.292c5.558,0,10.52-3.482,12.409-8.709l25.158-69.604c3.13-8.659-3.347-17.779-12.554-17.678h0c-5.425.06-10.261,3.435-12.188,8.506v.002Z"/><path d="M69.241,79.296l-7.736-12.253c-7.733-12.251-2.517-31.917-2.515-31.923,1.401-4.439,6.522-17.441,6.522-17.441C68.642,9.02,62.165-.1,52.958,0c-5.425.06-10.261,3.435-12.188,8.506v.002L.873,111.749c-3.281,8.634,3.096,17.88,12.332,17.88h1.292c5.558,0,10.52-3.482,12.409-8.709l6.709-17.94c2.517-5.539,6.601-5.65,9.113-5.069l17.087,6.176,9.426-24.791Z"/></svg>